<svg width="1392" height="1411" viewBox="0 0 1392 1411" fill="none" xmlns="http://www.w3.org/2000/svg">
<circle opacity="0.7" cx="696" cy="696" r="696" fill="#61C554"/>
<path d="M893.695 1364.4C840.946 1291.14 799.674 1112.87 794.79 1042.05L543.864 933.982L439.464 1364.4H893.695Z" fill="#FC909F" stroke="black" stroke-width="14.6526"/>
<mask id="mask0_259_640" style="mask-type:alpha" maskUnits="userSpaceOnUse" x="439" y="933" width="455" height="432">
<path d="M893.695 1364.4C840.946 1291.14 799.674 1112.87 794.79 1042.05L543.864 933.982L439.464 1364.4H893.695Z" fill="#FFEDEF"/>
</mask>
<g mask="url(#mask0_259_640)">
<ellipse cx="783.916" cy="926.781" rx="216.126" ry="197.811" fill="black"/>
</g>
<g clip-path="url(#clip0_259_640)">
<path d="M893.811 1327.9C841.061 1254.64 799.79 1112.99 794.906 1042.17L543.979 934.107L439.579 1327.9H893.811Z" fill="#F9C9B6" stroke="black" stroke-width="14.6526"/>
<mask id="mask1_259_640" style="mask-type:alpha" maskUnits="userSpaceOnUse" x="439" y="934" width="455" height="431">
<path d="M893.811 1364.53C841.061 1291.27 799.79 1112.99 794.906 1042.17L543.979 934.107L439.579 1364.53H893.811Z" fill="#F9C9B6"/>
</mask>
<g mask="url(#mask1_259_640)">
<g style="mix-blend-mode:multiply">
<ellipse cx="783.916" cy="926.781" rx="216.126" ry="197.811" fill="black"/>
</g>
</g>
<mask id="path-8-inside-1_259_640" fill="white">
<path fill-rule="evenodd" clip-rule="evenodd" d="M1003.29 710.354C1003.19 709.929 1003.09 709.504 1002.99 709.079C1002.89 708.655 1002.78 708.23 1002.68 707.806L942.622 457.132C942.561 456.877 942.501 456.623 942.44 456.368C942.379 456.113 942.317 455.859 942.255 455.604L941.994 454.511L941.989 454.513C904.558 302.694 751.524 209.344 599.231 245.832C446.938 282.32 352.823 434.885 388.256 587.182L388.249 587.184L450.49 846.967L450.541 846.955C489.381 996.795 641.282 1088.51 792.453 1052.29C943.623 1016.07 1037.47 865.478 1004.19 714.306L1004.24 714.295L1003.29 710.354Z"/>
</mask>
<path fill-rule="evenodd" clip-rule="evenodd" d="M1003.29 710.354C1003.19 709.929 1003.09 709.504 1002.99 709.079C1002.89 708.655 1002.78 708.23 1002.68 707.806L942.622 457.132C942.561 456.877 942.501 456.623 942.44 456.368C942.379 456.113 942.317 455.859 942.255 455.604L941.994 454.511L941.989 454.513C904.558 302.694 751.524 209.344 599.231 245.832C446.938 282.32 352.823 434.885 388.256 587.182L388.249 587.184L450.49 846.967L450.541 846.955C489.381 996.795 641.282 1088.51 792.453 1052.29C943.623 1016.07 1037.47 865.478 1004.19 714.306L1004.24 714.295L1003.29 710.354Z" fill="#F9C9B6"/>
<path d="M1003.29 710.354L989.027 713.704L989.034 713.736L989.042 713.768L1003.29 710.354ZM1002.99 709.079L1017.24 705.665L1017.24 705.665L1002.99 709.079ZM1002.68 707.806L988.432 711.22L988.439 711.252L988.447 711.283L1002.68 707.806ZM942.616 457.109L928.358 460.487L928.362 460.505L928.367 460.523L942.616 457.109ZM942.261 455.627L928.012 459.041L928.016 459.06L928.021 459.079L942.261 455.627ZM941.994 454.511L956.243 451.097L952.834 436.868L938.6 440.257L941.994 454.511ZM941.989 454.513L927.762 458.02L931.242 472.134L945.382 468.767L941.989 454.513ZM599.231 245.832L602.645 260.081L602.645 260.081L599.231 245.832ZM388.256 587.182L391.687 601.427L405.822 598.022L402.527 583.862L388.256 587.182ZM388.249 587.184L384.817 572.939L370.589 576.366L373.999 590.598L388.249 587.184ZM450.49 846.967L436.241 850.381L439.654 864.627L453.901 861.217L450.49 846.967ZM450.541 846.955L464.725 843.278L461.117 829.357L447.131 832.705L450.541 846.955ZM792.453 1052.29L789.039 1038.04L789.039 1038.04L792.453 1052.29ZM1004.19 714.306L1000.78 700.056L986.788 703.407L989.88 717.456L1004.19 714.306ZM1004.24 714.295L1007.65 728.544L1021.9 725.131L1018.48 710.881L1004.24 714.295ZM1017.56 707.004C1017.45 706.559 1017.35 706.112 1017.24 705.665L988.74 712.493C988.836 712.896 988.932 713.3 989.027 713.704L1017.56 707.004ZM1017.24 705.665C1017.13 705.219 1017.02 704.773 1016.91 704.329L988.447 711.283C988.545 711.687 988.643 712.09 988.74 712.494L1017.24 705.665ZM928.367 460.523L988.432 711.22L1016.93 704.392L956.865 453.695L928.367 460.523ZM956.874 453.732C956.813 453.473 956.751 453.214 956.689 452.954L928.19 459.782C928.246 460.016 928.302 460.251 928.358 460.487L956.874 453.732ZM956.689 452.954C956.627 452.694 956.564 452.435 956.501 452.176L928.021 459.079C928.077 459.313 928.134 459.547 928.19 459.782L956.689 452.954ZM927.744 457.925L928.012 459.041L956.51 452.213L956.243 451.097L927.744 457.925ZM945.382 468.767L945.388 468.766L938.6 440.257L938.595 440.258L945.382 468.767ZM956.215 451.005C916.858 291.371 755.948 193.216 595.817 231.582L602.645 260.081C747.099 225.471 892.258 314.017 927.762 458.02L956.215 451.005ZM595.817 231.582C435.685 269.948 336.727 430.365 373.984 590.502L402.527 583.862C368.918 439.405 458.19 294.691 602.645 260.081L595.817 231.582ZM391.68 601.429L391.687 601.427L384.824 572.937L384.817 572.939L391.68 601.429ZM464.74 843.553L402.498 583.77L373.999 590.598L436.241 850.381L464.74 843.553ZM447.131 832.705L447.08 832.717L453.901 861.217L453.952 861.205L447.131 832.705ZM436.358 850.632C477.198 1008.19 636.915 1104.62 795.867 1066.54L789.039 1038.04C645.65 1072.39 501.565 985.401 464.725 843.278L436.358 850.632ZM795.867 1066.54C954.819 1028.45 1053.49 870.113 1018.5 711.155L989.88 717.456C1021.45 860.842 932.428 1003.68 789.039 1038.04L795.867 1066.54ZM1000.82 700.045L1000.78 700.056L1007.6 728.555L1007.65 728.544L1000.82 700.045ZM989.042 713.768L989.986 717.709L1018.48 710.881L1017.54 706.94L989.042 713.768Z" fill="black" mask="url(#path-8-inside-1_259_640)"/>
</g>
<path d="M657.538 807.728C666.696 870.001 771.096 899.306 866.338 827.875" stroke="black" stroke-width="14.6526"/>
<path d="M802.232 484.323C822.99 474.555 871.832 465.641 901.137 508.134" stroke="black" stroke-width="14.6526" stroke-linecap="round"/>
<path d="M525.953 577.026C533.538 555.375 561.42 514.294 612.267 523.183" stroke="black" stroke-width="14.6526" stroke-linecap="round"/>
<path d="M669.582 177.622L669.862 177.652L670.143 177.66C767.837 180.533 843.781 219.412 897.525 266.858C949.014 312.314 979.76 365.301 989.788 401.415C974.915 409.904 949.439 417.208 916.945 423.199C881.502 429.733 838.946 434.505 795.524 437.907C708.683 444.71 618.997 445.986 577.107 445.075L554.861 444.592L572.468 458.197C581.617 465.267 593.795 470.187 606.676 473.647C619.65 477.132 633.853 479.27 647.452 480.486C661.46 481.737 675.118 482.032 686.431 481.743C647.65 511.641 598.288 534.631 549.617 551.671C493.401 571.352 438.734 582.882 403.717 588.014L395.844 589.168L397.642 596.919C409.904 649.773 432.445 742.166 447.564 804.134C454.271 831.628 459.518 853.132 461.757 862.539C465.729 879.22 478.235 902.999 492.508 924.916C505.669 945.125 521.024 964.803 533.982 976.915L505.27 1093.45H396.984C427.527 1046.88 433.973 993.072 427.746 936.001C421.004 874.225 399.314 807.773 376.45 741.24C374.2 734.69 371.937 728.14 369.676 721.591C348.855 661.299 328.091 601.173 316.842 543.548C304.383 479.721 303.828 419.986 327.219 367.465C365.092 282.429 432.229 233.049 499.385 205.837C566.697 178.56 633.528 173.78 669.582 177.622Z" fill="white" stroke="black" stroke-width="14.6526"/>
<ellipse cx="616.007" cy="615.229" rx="32.9684" ry="36.6316" transform="rotate(-6.77646 616.007 615.229)" fill="black"/>
<ellipse cx="850.56" cy="578.584" rx="32.9684" ry="36.6316" transform="rotate(-6.27568 850.56 578.584)" fill="black"/>
<path d="M744.446 619.106C751.584 669.891 782.584 706.225 782.584 706.225C782.584 706.225 772.947 729.775 735.652 727.618" stroke="black" stroke-width="14.6526"/>
<path d="M479.874 667.609V663.509L476.379 661.365C462.702 652.972 446.069 648.38 428.883 648.38C408.221 648.38 388.878 654.781 375.099 667.776C361.166 680.917 353.649 700.131 355.645 724.083C357.59 747.423 365.426 764.602 378.422 776.016C377.354 779.676 377.039 783.622 377.534 787.775C378.96 799.747 385.012 808.374 394.366 813.69C403.281 818.757 414.692 820.548 426.847 820.548C446.918 820.548 464.517 809.752 477.918 795.313L479.874 793.205V790.329V667.609Z" stroke="black" stroke-width="14.6526"/>
<path fill-rule="evenodd" clip-rule="evenodd" d="M501.751 725.248C502.012 722.861 502.146 720.436 502.146 717.981C502.146 680.553 467.322 655.707 428.883 655.707C390.444 655.707 359.283 679.518 362.946 723.475C364.984 747.936 373.737 764.034 387.309 773.723C385.153 777.474 384.21 781.879 384.809 786.909C387.114 806.257 403.63 813.222 426.847 813.222C467.527 813.222 499.714 761.768 501.751 725.248Z" fill="#F9C9B6"/>
<path d="M445.074 686.845C430.421 680.129 398.185 676.588 386.463 716.15" stroke="black" stroke-width="14.6526"/>
<path d="M406.611 688.675C414.548 695.391 429.689 716.148 426.758 745.454" stroke="black" stroke-width="14.6526"/>
<path d="M1185.74 1402.99H184.529C244.238 1295.51 329.163 1227.09 466.849 1195.7C525.509 1182.33 593.845 1175.65 674.021 1175.65C708.658 1175.65 735.612 1180.94 761.19 1187.91C770.665 1190.49 780.189 1193.39 789.932 1196.35C806.059 1201.25 822.786 1206.33 840.886 1210.49L841.399 1210.61L841.924 1210.65C1010.89 1224.58 1112.21 1299.64 1185.74 1402.99Z" fill="#77311D" stroke="black" stroke-width="14.6526"/>
<path d="M424.669 1203.65L458.198 1131.86C458.999 1130.15 460.989 1129.33 462.773 1129.96C601.704 1179.14 728.092 1175.68 845.22 1143.07C846.694 1142.66 848.269 1143.21 849.172 1144.44L900.208 1214.23C901.611 1216.15 900.896 1218.86 898.684 1219.73C775.576 1268.07 544.573 1259.85 426.444 1208.49C424.57 1207.68 423.804 1205.5 424.669 1203.65Z" fill="white" stroke="black" stroke-width="14.6526"/>
<defs>
<clipPath id="clip0_259_640">
<rect width="732.632" height="1172.21" fill="white" transform="translate(329.685 157.518)"/>
</clipPath>
</defs>
</svg>
