<svg width="20" height="20" viewBox="0 0 20 20" fill="none" xmlns="http://www.w3.org/2000/svg">
<path d="M14.2929 6.79289C14.6834 6.40237 15.3166 6.40237 15.7071 6.79289C16.0976 7.18342 16.0976 7.81658 15.7071 8.20711L14.2929 6.79289ZM10 12.5L10.7071 13.2071L10 13.9142L9.29289 13.2071L10 12.5ZM4.29289 8.20711C3.90237 7.81658 3.90237 7.18342 4.29289 6.79289C4.68342 6.40237 5.31658 6.40237 5.70711 6.79289L4.29289 8.20711ZM15.7071 8.20711L10.7071 13.2071L9.29289 11.7929L14.2929 6.79289L15.7071 8.20711ZM9.29289 13.2071L4.29289 8.20711L5.70711 6.79289L10.7071 11.7929L9.29289 13.2071Z" fill="black"/>
</svg>
